<svg width="43" height="44" viewBox="0 0 43 44" fill="none" xmlns="http://www.w3.org/2000/svg">
<circle cx="21.5" cy="21.5186" r="21.5" fill="#ECECEC"/>
<path d="M31.5 20.5984V21.5184C31.4988 23.6748 30.8005 25.7731 29.5093 27.5002C28.2182 29.2274 26.4033 30.4909 24.3354 31.1023C22.2674 31.7137 20.0573 31.6403 18.0345 30.893C16.0117 30.1457 14.2847 28.7645 13.111 26.9555C11.9373 25.1465 11.3798 23.0065 11.5217 20.8547C11.6636 18.703 12.4972 16.6547 13.8983 15.0155C15.2994 13.3762 17.1928 12.2338 19.2962 11.7586C21.3996 11.2833 23.6003 11.5008 25.57 12.3784" stroke="black" stroke-width="1.5" stroke-linecap="round" stroke-linejoin="round"/>
<path d="M31.5 13.5186L21.5 23.5286L18.5 20.5286" stroke="black" stroke-width="1.5" stroke-linecap="round" stroke-linejoin="round"/>
</svg>
