<svg width="25" height="25" viewBox="0 0 25 25" fill="none" xmlns="http://www.w3.org/2000/svg">
<g clip-path="url(#clip0_3754_1362)">
<path d="M1.5 4.50879V10.5088H7.5" stroke="black" stroke-width="1.5" stroke-linecap="round" stroke-linejoin="round"/>
<path d="M4.01 15.5092C4.65839 17.3496 5.88734 18.9294 7.51166 20.0106C9.13598 21.0918 11.0677 21.6158 13.0157 21.5037C14.9637 21.3916 16.8226 20.6494 18.3121 19.389C19.8017 18.1286 20.8413 16.4182 21.2742 14.5156C21.7072 12.613 21.5101 10.6212 20.7126 8.84032C19.9152 7.05947 18.5605 5.58602 16.8528 4.64199C15.1451 3.69796 13.1769 3.33449 11.2447 3.60634C9.31245 3.8782 7.52091 4.77065 6.14 6.14923L1.5 10.5092" stroke="black" stroke-width="1.5" stroke-linecap="round" stroke-linejoin="round"/>
</g>
<defs>
<clipPath id="clip0_3754_1362">
<rect width="24" height="24" fill="white" transform="translate(0.5 0.508789)"/>
</clipPath>
</defs>
</svg>
